<?xml version="1.0" encoding="UTF-8" standalone="no"?>
<!DOCTYPE svg PUBLIC "-//W3C//DTD SVG 1.1//EN" "http://www.w3.org/Graphics/SVG/1.1/DTD/svg11.dtd">
<svg width="100%" height="100%" viewBox="0 0 120 120" version="1.1" xmlns="http://www.w3.org/2000/svg" xmlns:xlink="http://www.w3.org/1999/xlink" xml:space="preserve" xmlns:serif="http://www.serif.com/" style="fill-rule:evenodd;clip-rule:evenodd;stroke-linejoin:round;stroke-miterlimit:2;">
    <g transform="matrix(1,0,0,1,-32.1829,-13.0671)">
        <clipPath id="_clip1">
            <rect x="42.208" y="27.545" width="99.951" height="91.045"/>
        </clipPath>
        <g clip-path="url(#_clip1)">
            <path d="M141.35,73.27C141.35,66.38 133.24,60.27 120.77,56.54C123.77,43.87 122.46,33.79 116.49,30.38C115.026,29.567 113.374,29.153 111.7,29.18C106.13,29.18 99.09,33.07 91.98,39.8C84.87,33.12 77.85,29.25 72.29,29.25C70.59,29.212 68.911,29.634 67.43,30.47C61.49,33.89 60.26,43.91 63.22,56.52C50.81,60.23 42.74,66.29 42.72,73.15C42.7,80.01 50.84,86.15 63.31,89.87C60.31,102.55 61.61,112.62 67.59,116.03C69.048,116.847 70.698,117.262 72.37,117.23C77.95,117.23 84.99,113.34 92.1,106.61C99.2,113.29 106.22,117.16 111.79,117.16C113.489,117.191 115.167,116.77 116.65,115.94C122.59,112.52 123.81,102.5 120.86,89.94C133.27,86.18 141.34,80.12 141.35,73.27ZM96.56,42.06C104.75,34.73 109.87,33.94 111.69,33.94C112.534,33.913 113.37,34.113 114.11,34.52C116.97,36.15 118.11,41.9 117.2,49.52C116.967,51.466 116.633,53.399 116.2,55.31C112.056,54.347 107.854,53.655 103.62,53.24C101.099,49.702 98.346,46.335 95.38,43.16C95.75,42.79 96.15,42.42 96.56,42.06ZM71.77,78.94C72.55,80.44 73.38,81.94 74.24,83.45C75.1,84.96 76,86.49 77,88C74.29,87.61 71.66,87.12 69.16,86.54C69.86,84 70.75,81.5 71.77,78.94ZM69,59.9C71.53,59.31 74.18,58.82 76.93,58.44C75.93,59.92 75.07,61.44 74.17,63.03C73.27,64.62 72.48,66.03 71.71,67.55C70.69,64.95 69.787,62.4 69,59.9ZM74.21,73.24C75.45,70.62 76.813,68 78.3,65.38C79.8,62.76 81.41,60.21 83.07,57.77C85.98,57.55 88.98,57.43 92.07,57.44C95.16,57.45 98.07,57.56 100.96,57.79C102.62,60.21 104.21,62.79 105.71,65.34C107.21,67.89 108.59,70.56 109.83,73.17C108.6,75.79 107.23,78.42 105.75,81.02C104.27,83.62 102.64,86.2 100.98,88.64C98.07,88.87 95.07,88.98 91.98,88.98C88.89,88.98 85.98,88.85 83.09,88.62C81.43,86.2 79.83,83.68 78.33,81.07C76.83,78.46 75.5,75.85 74.25,73.24L74.21,73.24ZM107.07,58.47C109.79,58.85 112.42,59.34 114.91,59.92C114.17,62.39 113.29,64.92 112.27,67.47C111.48,65.97 110.66,64.47 109.79,62.96C108.92,61.45 108,59.93 107.11,58.47L107.07,58.47ZM109.83,83.39C110.69,81.877 111.51,80.367 112.29,78.86C113.29,81.46 114.29,84.02 114.99,86.52C112.47,87.11 109.82,87.59 107.07,87.97C108.037,86.49 108.97,84.963 109.87,83.39L109.83,83.39ZM92,46.56C93.8,48.48 95.57,50.56 97.3,52.79C95.59,52.72 93.84,52.67 92.07,52.67C90.3,52.67 88.49,52.67 86.74,52.79C88.45,50.57 90.2,48.48 92,46.56ZM69.82,34.56C70.579,34.157 71.432,33.963 72.29,34C74.092,34.075 75.859,34.521 77.48,35.31C81.145,37.038 84.518,39.325 87.48,42.09L88.65,43.16C85.714,46.311 82.988,49.652 80.49,53.16C76.233,53.572 72.008,54.26 67.84,55.22C67.4,53.28 67.04,51.38 66.84,49.55C65.8,42 67,36.24 69.81,34.6L69.82,34.56ZM64.53,85.26C62.651,84.686 60.802,84.019 58.99,83.26C51.89,80.26 47.49,76.41 47.49,73.12C47.49,69.83 51.91,66 59,63.05C60.78,62.313 62.595,61.665 64.44,61.11C65.69,65.253 67.213,69.309 69,73.25C67.251,77.152 65.758,81.164 64.53,85.26ZM87.53,104.36C79.34,111.69 74.22,112.47 72.39,112.47C71.546,112.498 70.71,112.298 69.97,111.89C67.11,110.26 65.97,104.51 66.88,96.89C67.112,94.947 67.446,93.018 67.88,91.11C72.025,92.065 76.227,92.753 80.46,93.17C82.978,96.71 85.731,100.078 88.7,103.25L87.53,104.36ZM92.1,99.85C90.3,97.93 88.53,95.85 86.79,93.62C88.51,93.7 90.26,93.74 92.03,93.74C93.8,93.74 95.61,93.74 97.36,93.63C95.63,95.85 93.87,97.93 92.09,99.85L92.1,99.85ZM114.28,111.85C113.521,112.266 112.665,112.469 111.8,112.44C109.98,112.44 104.8,111.64 96.64,104.34L95.47,103.27C98.402,100.118 101.125,96.778 103.62,93.27C107.881,92.863 112.11,92.175 116.28,91.21C116.72,93.15 117.07,95.05 117.28,96.88C118.27,104.42 117.12,110.18 114.27,111.81L114.28,111.85ZM125.08,83.41C123.37,84.11 121.56,84.76 119.64,85.34C118.385,81.197 116.858,77.142 115.07,73.2C116.827,69.302 118.326,65.294 119.56,61.2C121.439,61.774 123.288,62.441 125.1,63.2C132.19,66.2 136.6,70.05 136.59,73.34C136.58,76.63 132.17,80.42 125.07,83.37L125.08,83.41ZM92,82.39C92.003,82.39 92.007,82.39 92.01,82.39C97.046,82.39 101.19,78.246 101.19,73.21C101.19,68.174 97.046,64.03 92.01,64.03C86.978,64.03 82.835,68.168 82.83,73.2C82.83,73.207 82.83,73.213 82.83,73.22C82.83,78.251 86.969,82.39 92,82.39C92,82.39 92,82.39 92,82.39ZM31,17.88L31,128.53L153.07,128.53L153.07,17.88L31,17.88ZM148.3,123.77L35.78,123.77L35.78,22.65L148.3,22.65L148.3,123.77ZM63.3,89.87C60.3,102.55 61.6,112.62 67.58,116.03C69.038,116.847 70.688,117.262 72.36,117.23C77.94,117.23 84.98,113.34 92.09,106.61C99.19,113.29 106.21,117.16 111.78,117.16C113.479,117.191 115.157,116.77 116.64,115.94C122.58,112.52 123.8,102.5 120.85,89.94C133.26,86.22 141.33,80.16 141.34,73.31C141.35,66.46 133.23,60.31 120.76,56.58C123.76,43.91 122.45,33.83 116.48,30.42C115.016,29.607 113.364,29.193 111.69,29.22C106.12,29.22 99.08,33.11 91.97,39.84C84.86,33.16 77.84,29.29 72.28,29.29C70.58,29.252 68.901,29.674 67.42,30.51C61.48,33.93 60.25,43.95 63.21,56.56C50.8,60.27 42.73,66.33 42.71,73.19C42.69,80.05 50.84,86.13 63.31,89.87L63.3,89.87ZM87.51,104.36C79.32,111.69 74.2,112.47 72.37,112.47C71.526,112.498 70.69,112.298 69.95,111.89C67.09,110.26 65.95,104.51 66.86,96.89C67.092,94.947 67.426,93.018 67.86,91.11C72.005,92.065 76.207,92.753 80.44,93.17C82.958,96.71 85.711,100.078 88.68,103.25L87.51,104.36ZM112.3,67.47C111.51,65.97 110.69,64.47 109.82,62.96C108.95,61.45 108.02,59.96 107.1,58.47C109.82,58.85 112.45,59.34 114.94,59.92C114.21,62.39 113.33,64.92 112.31,67.47L112.3,67.47ZM115.02,86.47C112.5,87.06 109.85,87.54 107.1,87.92C108.04,86.44 108.96,84.913 109.86,83.34C110.76,81.767 111.58,80.257 112.32,78.81C113.37,81.46 114.28,84 115,86.52L115.02,86.47ZM109.81,73.12C108.58,75.74 107.21,78.37 105.73,80.97C104.25,83.57 102.62,86.15 100.96,88.59C98.05,88.82 95.05,88.93 91.96,88.93C88.87,88.93 85.96,88.8 83.07,88.57C81.41,86.15 79.81,83.63 78.31,81.02C76.81,78.41 75.44,75.8 74.19,73.19C75.43,70.57 76.793,67.95 78.28,65.33C79.78,62.71 81.39,60.16 83.05,57.72C85.96,57.5 88.96,57.38 92.05,57.39C95.14,57.4 98.05,57.51 100.94,57.74C102.6,60.16 104.19,62.74 105.69,65.29C107.19,67.84 108.58,70.56 109.82,73.17L109.81,73.12ZM77,88C74.29,87.61 71.66,87.12 69.16,86.54C69.9,84.08 70.79,81.54 71.81,78.99C72.59,80.49 73.42,81.99 74.28,83.5C75.14,85.01 76,86.49 77,88ZM74.21,63C73.34,64.5 72.52,66 71.75,67.52C70.703,64.94 69.787,62.4 69,59.9C71.53,59.31 74.18,58.82 76.93,58.44C76,59.92 75.11,61.45 74.21,63ZM92.09,99.85C90.29,97.93 88.52,95.85 86.78,93.62C88.5,93.7 90.25,93.74 92.02,93.74C93.79,93.74 95.6,93.74 97.35,93.63C95.63,95.85 93.87,97.93 92.09,99.85ZM114.27,111.85C113.511,112.266 112.655,112.469 111.79,112.44C109.97,112.44 104.79,111.64 96.63,104.34L95.46,103.27C98.392,100.118 101.115,96.778 103.61,93.27C107.871,92.863 112.1,92.175 116.27,91.21C116.71,93.15 117.06,95.05 117.27,96.88C118.27,104.42 117.12,110.18 114.27,111.81L114.27,111.85ZM119.55,61.19C121.429,61.764 123.278,62.431 125.09,63.19C132.18,66.19 136.59,70.04 136.58,73.33C136.57,76.62 132.17,80.49 125.07,83.44C123.36,84.14 121.55,84.79 119.63,85.37C118.375,81.227 116.848,77.172 115.06,73.23C116.82,69.306 118.32,65.271 119.55,61.15L119.55,61.19ZM96.55,42.1C104.74,34.77 109.86,33.98 111.68,33.98C112.524,33.953 113.36,34.153 114.1,34.56C116.96,36.19 118.1,41.94 117.19,49.56C116.957,51.506 116.623,53.439 116.19,55.35C112.046,54.387 107.844,53.695 103.61,53.28C101.089,49.742 98.336,46.375 95.37,43.2C95.75,42.79 96.15,42.42 96.56,42.06L96.55,42.1ZM92,46.56C93.8,48.48 95.57,50.56 97.3,52.79C95.59,52.72 93.84,52.67 92.07,52.67C90.3,52.67 88.49,52.67 86.74,52.79C88.45,50.57 90.2,48.48 92,46.56ZM69.82,34.56C70.579,34.157 71.432,33.963 72.29,34C74.092,34.075 75.859,34.521 77.48,35.31C81.145,37.038 84.518,39.325 87.48,42.09L88.65,43.16C85.714,46.311 82.988,49.652 80.49,53.16C76.233,53.572 72.008,54.26 67.84,55.22C67.4,53.28 67.04,51.38 66.84,49.55C65.8,42 67,36.24 69.81,34.6L69.82,34.56ZM59,63.05C60.78,62.313 62.595,61.665 64.44,61.11C65.69,65.253 67.213,69.309 69,73.25C67.245,77.149 65.745,81.157 64.51,85.25C62.631,84.676 60.782,84.009 58.97,83.25C51.87,80.25 47.47,76.4 47.47,73.11C47.47,69.82 51.91,66 59,63.05ZM92,64.05C91.997,64.05 91.993,64.05 91.99,64.05C86.954,64.05 82.81,68.194 82.81,73.23C82.81,78.266 86.954,82.41 91.99,82.41C97.022,82.41 101.165,78.272 101.17,73.24C101.17,73.217 101.17,73.193 101.17,73.17C101.17,68.139 97.031,64 92,64C92,64 92,64 92,64L92,64.05ZM92,64.05C91.997,64.05 91.993,64.05 91.99,64.05C86.954,64.05 82.81,68.194 82.81,73.23C82.81,78.266 86.954,82.41 91.99,82.41C97.022,82.41 101.165,78.272 101.17,73.24C101.17,73.217 101.17,73.193 101.17,73.17C101.17,68.139 97.031,64 92,64C92,64 92,64 92,64L92,64.05ZM92,64.05C91.997,64.05 91.993,64.05 91.99,64.05C86.954,64.05 82.81,68.194 82.81,73.23C82.81,78.266 86.954,82.41 91.99,82.41C97.022,82.41 101.165,78.272 101.17,73.24C101.17,73.217 101.17,73.193 101.17,73.17C101.17,68.139 97.031,64 92,64C92,64 92,64 92,64L92,64.05ZM141.35,73.29C141.35,66.4 133.24,60.29 120.77,56.56C123.77,43.89 122.46,33.81 116.49,30.4C115.026,29.587 113.374,29.173 111.7,29.2C106.13,29.2 99.09,33.09 91.98,39.82C84.87,33.14 77.85,29.27 72.29,29.27C70.59,29.232 68.911,29.654 67.43,30.49C61.49,33.91 60.26,43.93 63.22,56.54C50.81,60.25 42.74,66.31 42.72,73.17C42.7,80.03 50.84,86.17 63.31,89.89C60.31,102.57 61.61,112.64 67.59,116.05C69.048,116.867 70.698,117.282 72.37,117.25C77.95,117.25 84.99,113.36 92.1,106.63C99.2,113.31 106.22,117.18 111.79,117.18C113.489,117.211 115.167,116.79 116.65,115.96C122.59,112.54 123.81,102.52 120.86,89.96C133.27,86.18 141.34,80.12 141.35,73.27L141.35,73.29ZM96.56,42.06C104.75,34.73 109.87,33.94 111.69,33.94C112.534,33.913 113.37,34.113 114.11,34.52C116.97,36.15 118.11,41.9 117.2,49.52C116.967,51.466 116.633,53.399 116.2,55.31C112.056,54.347 107.854,53.655 103.62,53.24C101.099,49.702 98.346,46.335 95.38,43.16C95.75,42.79 96.15,42.42 96.56,42.06ZM71.77,78.94C72.55,80.44 73.38,81.94 74.24,83.45C75.1,84.96 76,86.49 77,88C74.29,87.61 71.66,87.12 69.16,86.54C69.86,84 70.75,81.5 71.77,78.94ZM69,59.9C71.53,59.31 74.18,58.82 76.93,58.44C75.93,59.92 75.07,61.44 74.17,63.03C73.27,64.62 72.48,66.03 71.71,67.55C70.69,64.95 69.787,62.4 69,59.9ZM74.21,73.24C75.45,70.62 76.813,68 78.3,65.38C79.8,62.76 81.41,60.21 83.07,57.77C85.98,57.55 88.98,57.43 92.07,57.44C95.16,57.45 98.07,57.56 100.96,57.79C102.62,60.21 104.21,62.79 105.71,65.34C107.21,67.89 108.59,70.56 109.83,73.17C108.6,75.79 107.23,78.42 105.75,81.02C104.27,83.62 102.64,86.2 100.98,88.64C98.07,88.87 95.07,88.98 91.98,88.98C88.89,88.98 85.98,88.85 83.09,88.62C81.43,86.2 79.83,83.68 78.33,81.07C76.83,78.46 75.5,75.85 74.25,73.24L74.21,73.24ZM107.07,58.47C109.79,58.85 112.42,59.34 114.91,59.92C114.17,62.39 113.29,64.92 112.27,67.47C111.48,65.97 110.66,64.47 109.79,62.96C108.92,61.45 108,59.93 107.11,58.47L107.07,58.47ZM109.83,83.39C110.69,81.877 111.51,80.367 112.29,78.86C113.29,81.46 114.29,84.02 114.99,86.52C112.47,87.11 109.82,87.59 107.07,87.97C108.037,86.49 108.97,84.963 109.87,83.39L109.83,83.39ZM92,46.56C93.8,48.48 95.57,50.56 97.3,52.79C95.59,52.72 93.84,52.67 92.07,52.67C90.3,52.67 88.49,52.67 86.74,52.79C88.45,50.57 90.2,48.48 92,46.56ZM69.82,34.56C70.579,34.157 71.432,33.963 72.29,34C74.092,34.075 75.859,34.521 77.48,35.31C81.145,37.038 84.518,39.325 87.48,42.09L88.65,43.16C85.714,46.311 82.988,49.652 80.49,53.16C76.233,53.572 72.008,54.26 67.84,55.22C67.4,53.28 67.04,51.38 66.84,49.55C65.8,42 67,36.24 69.81,34.6L69.82,34.56ZM64.53,85.26C62.651,84.686 60.802,84.019 58.99,83.26C51.89,80.26 47.49,76.41 47.49,73.12C47.49,69.83 51.91,66 59,63.05C60.78,62.313 62.595,61.665 64.44,61.11C65.69,65.253 67.213,69.309 69,73.25C67.251,77.152 65.758,81.164 64.53,85.26ZM87.53,104.36C79.34,111.69 74.22,112.47 72.39,112.47C71.546,112.498 70.71,112.298 69.97,111.89C67.11,110.26 65.97,104.51 66.88,96.89C67.112,94.947 67.446,93.018 67.88,91.11C72.025,92.065 76.227,92.753 80.46,93.17C82.978,96.71 85.731,100.078 88.7,103.25L87.53,104.36ZM92.1,99.85C90.3,97.93 88.53,95.85 86.79,93.62C88.51,93.7 90.26,93.74 92.03,93.74C93.8,93.74 95.61,93.74 97.36,93.63C95.63,95.85 93.87,97.93 92.09,99.85L92.1,99.85ZM114.28,111.85C113.521,112.266 112.665,112.469 111.8,112.44C109.98,112.44 104.8,111.64 96.64,104.34L95.47,103.27C98.402,100.118 101.125,96.778 103.62,93.27C107.881,92.863 112.11,92.175 116.28,91.21C116.72,93.15 117.07,95.05 117.28,96.88C118.27,104.42 117.12,110.18 114.27,111.81L114.28,111.85ZM125.08,83.41C123.37,84.11 121.56,84.76 119.64,85.34C118.385,81.197 116.858,77.142 115.07,73.2C116.827,69.302 118.326,65.294 119.56,61.2C121.439,61.774 123.288,62.441 125.1,63.2C132.19,66.2 136.6,70.05 136.59,73.34C136.58,76.63 132.17,80.42 125.07,83.37L125.08,83.41ZM92,82.39C92.003,82.39 92.007,82.39 92.01,82.39C97.046,82.39 101.19,78.246 101.19,73.21C101.19,68.174 97.046,64.03 92.01,64.03C86.978,64.03 82.835,68.168 82.83,73.2C82.83,73.207 82.83,73.213 82.83,73.22C82.83,78.251 86.969,82.39 92,82.39C92,82.39 92,82.39 92,82.39ZM22.68,136.89L22.68,26.2L17.89,31L17.89,141.66L139.94,141.66L144.72,136.89L22.68,136.89Z" style="fill:rgb(9,211,172);fill-rule:nonzero;"/>
        </g>
    </g>
</svg>
